<svg width="211" height="64" viewBox="0 0 211 64" fill="none" xmlns="http://www.w3.org/2000/svg">
<g clip-path="url(#clip0_300_226)">
<path d="M1.99498 62.0157H0V63.9972H1.99498V62.0157Z" fill="white"/>
<path d="M6.86949 62.0157H4.87451V63.9972H6.86949V62.0157Z" fill="white"/>
<path d="M11.7469 62.0157H9.75195V63.9972H11.7469V62.0157Z" fill="white"/>
<path d="M16.6249 62.0157H14.6299V63.9972H16.6249V62.0157Z" fill="white"/>
<path d="M21.4999 62.0157H19.5049V63.9972H21.4999V62.0157Z" fill="white"/>
<path d="M26.3773 62.0157H24.3823V63.9972H26.3773V62.0157Z" fill="white"/>
<path d="M31.2547 62.0157H29.2598V63.9972H31.2547V62.0157Z" fill="white"/>
<path d="M36.1293 62.0157H34.1343V63.9972H36.1293V62.0157Z" fill="white"/>
<path d="M41.0044 62.0157H39.0122V63.9972H41.0044V62.0157Z" fill="white"/>
<path d="M45.8817 62.0157H43.8867V63.9972H45.8817V62.0157Z" fill="white"/>
<path d="M50.762 62.0157H48.7642V63.9972H50.762V62.0157Z" fill="white"/>
<path d="M55.6371 62.0157H53.6421V63.9972H55.6371V62.0157Z" fill="white"/>
<path d="M60.5087 62.0214H58.5137V64H60.5087V62.0214Z" fill="white"/>
<path d="M58.5278 58.0642H1.98934V1.97578H58.5278V58.067V58.0642ZM0 60.0372H60.5172V0H0V60.0372Z" fill="white"/>
<path d="M50.9792 22.0182C50.9848 14.273 45.6874 4.88168 30.2404 4.70129C16.6024 5.0677 9.51292 12.4663 9.51856 22.0323C9.88769 35.6852 22.2577 39.3465 30.2573 39.3465C43.3656 39.3408 51.3342 31.79 50.9792 22.0182ZM30.2094 35.9473C26.0363 35.9473 19.3948 34.0758 19.3948 21.9844C19.392 14.273 22.4352 8.19907 30.201 8.01587C38.8656 8.19061 41.0156 14.008 41.0184 21.9816C41.2043 29.8509 38.426 36.1249 30.2066 35.9473" fill="white"/>
<path d="M9.18905 36.4208C9.30176 36.0826 9.68498 35.9163 10.0118 36.06L17.0619 39.1519C20.7757 40.8684 24.605 42.3989 28.4936 43.6841C32.2778 44.9327 35.9804 45.6796 39.9816 45.4119C43.2558 45.192 46.5216 44.5804 49.6043 43.4502C50.2326 43.2191 50.9314 43.5375 51.1512 44.1661C51.3203 44.648 51.1569 45.1836 50.7483 45.4908L40.4099 53.2896C38.8799 54.4452 36.8088 54.5974 35.121 53.6842L8.71566 39.3943C8.45643 39.2534 8.33527 38.949 8.43107 38.6728L9.19187 36.4236L9.18905 36.4208Z" fill="white"/>
<path d="M209.256 60.1189C209.551 60.1189 209.833 60.1922 210.115 60.3416C210.388 60.4909 210.608 60.7023 210.763 60.9757C210.918 61.2519 210.997 61.5451 210.997 61.8438C210.997 62.1426 210.921 62.4244 210.774 62.7007C210.614 62.9769 210.4 63.1883 210.123 63.3433C209.847 63.4927 209.56 63.5688 209.258 63.5716C208.957 63.5716 208.667 63.4955 208.39 63.3433C208.114 63.1939 207.897 62.9797 207.745 62.7063C207.59 62.4301 207.514 62.1454 207.514 61.8466C207.514 61.5479 207.59 61.2604 207.745 60.9785C207.906 60.7051 208.12 60.4938 208.402 60.3444C208.678 60.1978 208.965 60.1217 209.256 60.1217M209.256 60.4092C209.01 60.4092 208.777 60.4712 208.548 60.5952C208.312 60.7192 208.128 60.8968 208.004 61.1279C207.875 61.3562 207.81 61.5986 207.81 61.8466C207.81 62.0947 207.875 62.3314 208.002 62.5569C208.128 62.7852 208.306 62.9628 208.54 63.0896C208.765 63.2136 209.008 63.2784 209.258 63.2756C209.506 63.2756 209.746 63.2164 209.98 63.0896C210.214 62.96 210.391 62.7852 210.521 62.5569C210.642 62.3286 210.709 62.0919 210.709 61.841C210.707 61.5958 210.642 61.3534 210.512 61.1251C210.385 60.894 210.202 60.7136 209.971 60.5896C209.735 60.4684 209.501 60.4064 209.258 60.4064" fill="white"/>
<path d="M208.492 62.7965V60.9447L209.129 60.9475C209.349 60.9475 209.512 60.9588 209.608 60.9954C209.704 61.0293 209.786 61.0884 209.845 61.1758C209.901 61.2604 209.932 61.3506 209.932 61.4464C209.932 61.5789 209.884 61.6972 209.786 61.8015C209.687 61.903 209.557 61.9566 209.394 61.9706C209.461 61.9988 209.515 62.0298 209.554 62.0693C209.631 62.1398 209.724 62.261 209.831 62.4301L210.062 62.7936H209.69L209.523 62.5005C209.391 62.2722 209.287 62.1285 209.208 62.0721C209.152 62.027 209.073 62.0073 208.968 62.0073H208.788V62.7908H208.492V62.7965ZM208.788 61.7536H209.16C209.335 61.7536 209.456 61.7283 209.518 61.6775C209.585 61.6268 209.616 61.5563 209.616 61.4718C209.616 61.4154 209.605 61.3675 209.574 61.3252C209.543 61.2829 209.498 61.2491 209.439 61.2266C209.385 61.2068 209.284 61.1956 209.135 61.1956H208.788V61.7536Z" fill="white"/>
<path d="M73.7858 58.4193V59.6087C72.9856 60.0428 72.0614 60.2598 71.0132 60.2598C70.1622 60.2598 69.4408 60.0907 68.8463 59.7497C68.2517 59.4114 67.784 58.9436 67.4374 58.346C67.0908 57.7513 66.9189 57.1059 66.9189 56.4153C66.9189 55.3133 67.3134 54.3888 68.1052 53.6391C68.897 52.8894 69.872 52.5145 71.0329 52.5145C71.8331 52.5145 72.7235 52.7231 73.7013 53.1374V54.3015C72.8109 53.7969 71.9402 53.5433 71.0892 53.5433C70.2383 53.5433 69.4916 53.8167 68.9139 54.3635C68.3363 54.9103 68.0489 55.5952 68.0489 56.4182C68.0489 57.2412 68.3335 57.9289 68.8998 58.4644C69.4662 58.9999 70.1932 59.2649 71.078 59.2649C71.9627 59.2649 72.9039 58.983 73.783 58.4221" fill="white"/>
<path d="M79.8387 53.5321C78.9652 53.5321 78.2495 53.8026 77.6887 54.3438C77.128 54.8849 76.8462 55.5755 76.8462 56.4182C76.8462 57.261 77.128 57.912 77.6916 58.4532C78.2551 58.9943 78.9596 59.2649 79.8077 59.2649C80.6559 59.2649 81.3688 58.9887 81.9351 58.4363C82.5043 57.8838 82.7889 57.1961 82.7889 56.3731C82.7889 55.5501 82.5043 54.899 81.9351 54.3522C81.3659 53.8055 80.6671 53.5321 79.8387 53.5321ZM79.7936 52.5033C80.9714 52.5033 81.952 52.8725 82.7354 53.611C83.5187 54.3494 83.9104 55.2795 83.9104 56.3929C83.9104 57.5062 83.5159 58.4306 82.7241 59.1606C81.9351 59.8906 80.9376 60.257 79.7344 60.257C78.5313 60.257 77.6296 59.8906 76.8631 59.1606C76.0967 58.4306 75.7163 57.5146 75.7163 56.4126C75.7163 55.3105 76.1023 54.3494 76.8716 53.6082C77.6408 52.8697 78.6158 52.5005 79.7936 52.5005" fill="white"/>
<path d="M92.2452 52.6105H93.2652V60.1725H92.1691V54.2903L89.8247 57.2131H89.6218L87.2521 54.2903V60.1725H86.1616V52.6105H87.1929L89.7261 55.7165L92.2452 52.6105Z" fill="white"/>
<path d="M97.999 53.5631H96.8691V55.9278H98.0638C98.509 55.9278 98.85 55.8235 99.0895 55.6178C99.329 55.4092 99.4501 55.1132 99.4501 54.7271C99.4501 53.952 98.9655 53.5631 97.999 53.5631ZM95.7729 60.1725V52.5991H98.1906C98.9176 52.5991 99.498 52.7936 99.932 53.1826C100.366 53.5715 100.58 54.0958 100.58 54.7525C100.58 55.1922 100.47 55.5811 100.248 55.9222C100.025 56.2604 99.7206 56.5084 99.3374 56.6606C98.9514 56.8128 98.3991 56.8917 97.6778 56.8917H96.8691V60.1725H95.7729Z" fill="white"/>
<path d="M105.602 56.9678L104.373 54.2282L103.232 56.9678H105.602ZM103.998 52.5681H104.765L108.183 60.1725H107.067L106.05 57.9317H102.798L101.846 60.1725H100.724L103.998 52.5681Z" fill="white"/>
<path d="M115.241 50.5558C115.238 50.9927 115.137 51.3337 114.937 51.5789C114.785 51.7706 114.593 51.8664 114.365 51.8664C114.165 51.8664 113.897 51.7959 113.559 51.6494C113.221 51.5056 112.964 51.4323 112.795 51.4323C112.7 51.4323 112.618 51.469 112.55 51.5423C112.48 51.6155 112.44 51.7227 112.426 51.8664H111.967C112.026 51.3591 112.13 51.018 112.282 50.8461C112.435 50.6742 112.629 50.5896 112.86 50.5896C113.071 50.5896 113.415 50.6854 113.891 50.8771C114.134 50.9757 114.308 51.0237 114.416 51.0237C114.523 51.0237 114.604 50.9898 114.675 50.9194C114.745 50.8489 114.793 50.7305 114.818 50.5586H115.244L115.241 50.5558ZM115.999 52.6133H117.036V60.1754H116.098L111.003 54.3523V60.1754H109.978V52.6133H110.862L116.002 58.4871V52.6133H115.999Z" fill="white"/>
<path d="M121.68 50.4288L120.448 52.0523H119.837L120.572 50.4288H121.68ZM119.606 52.6104H120.696V60.1724H119.606V52.6104Z" fill="white"/>
<path d="M127.355 56.9678L126.123 54.2282L124.982 56.9678H127.352H127.355ZM125.751 52.5681H126.518L129.936 60.1725H128.82L127.803 57.9317H124.551L123.599 60.1725H122.477L125.751 52.5681Z" fill="white"/>
<path d="M138.197 53.5744H136.834V59.1973H138.231C138.778 59.1973 139.2 59.1607 139.502 59.0874C139.803 59.0141 140.057 58.9211 140.257 58.8056C140.46 58.6928 140.643 58.5519 140.809 58.3856C141.348 57.8445 141.618 57.1596 141.618 56.3337C141.618 55.5079 141.342 54.8596 140.79 54.3467C140.587 54.155 140.353 54 140.088 53.876C139.823 53.7548 139.575 53.6731 139.339 53.6336C139.102 53.5941 138.721 53.5744 138.197 53.5744ZM135.743 60.1613V52.6105H138.313C139.35 52.6105 140.17 52.7655 140.773 53.0727C141.376 53.3827 141.858 53.8365 142.213 54.4341C142.568 55.0344 142.748 55.6855 142.748 56.3929C142.748 56.8974 142.649 57.3822 142.452 57.8445C142.255 58.3067 141.976 58.7126 141.612 59.0621C141.241 59.4228 140.809 59.6962 140.319 59.8794C140.032 59.9922 139.767 60.0654 139.527 60.1049C139.288 60.1415 138.829 60.1613 138.152 60.1613H135.74H135.743Z" fill="white"/>
<path d="M145.039 52.6105H149.359V53.5744H146.13V55.8799H149.252V56.8495H146.13V59.2002H149.463V60.1613H145.039V52.6105Z" fill="white"/>
<path d="M157.473 57.0044L156.645 56.5056C156.124 56.1899 155.755 55.8798 155.535 55.5754C155.315 55.271 155.205 54.9187 155.205 54.5213C155.205 53.9266 155.414 53.4418 155.831 53.0698C156.248 52.6977 156.789 52.5117 157.454 52.5117C158.119 52.5117 158.674 52.6893 159.206 53.0444V54.2733C158.657 53.749 158.065 53.4869 157.434 53.4869C157.076 53.4869 156.786 53.5687 156.555 53.7321C156.327 53.8956 156.211 54.1042 156.211 54.3607C156.211 54.5861 156.296 54.8004 156.465 54.9977C156.634 55.1949 156.904 55.4035 157.279 55.6205L158.113 56.111C159.043 56.6606 159.508 57.3624 159.508 58.2136C159.508 58.8196 159.302 59.3128 158.894 59.6905C158.485 60.071 157.952 60.2598 157.299 60.2598C156.546 60.2598 155.859 60.0315 155.242 59.5721V58.1967C155.831 58.9379 156.513 59.3072 157.287 59.3072C157.628 59.3072 157.913 59.2141 158.141 59.0253C158.369 58.8365 158.482 58.5997 158.482 58.315C158.482 57.8556 158.147 57.4188 157.479 57.0044" fill="white"/>
<path d="M161.63 52.6105H165.952V53.5744H162.72V55.8799H165.842V56.8495H162.72V59.2002H166.057V60.1613H161.63V52.6105Z" fill="white"/>
<path d="M172.264 56.4492H174.823V59.6538C173.884 60.0569 172.954 60.2598 172.03 60.2598C170.768 60.2598 169.759 59.8934 169.004 59.1634C168.249 58.4334 167.871 57.5315 167.871 56.4604C167.871 55.3302 168.263 54.3917 169.043 53.6419C169.824 52.8922 170.807 52.5145 171.985 52.5145C172.413 52.5145 172.822 52.5596 173.208 52.6526C173.594 52.7428 174.081 52.9119 174.67 53.1571V54.262C173.76 53.7378 172.859 53.4756 171.965 53.4756C171.131 53.4756 170.43 53.7575 169.858 54.3212C169.288 54.8849 169.001 55.5754 169.001 56.3956C169.001 57.2158 169.286 57.9571 169.858 58.501C170.43 59.045 171.165 59.3184 172.061 59.3184C172.498 59.3184 173.019 59.2198 173.628 59.0197L173.732 58.9858V57.4103H172.264V56.4464V56.4492Z" fill="white"/>
<path d="M182.647 52.6104H183.744V56.903C183.744 57.4836 183.701 57.9233 183.617 58.2192C183.532 58.5152 183.425 58.7604 183.301 58.9577C183.174 59.155 183.022 59.3297 182.839 59.4847C182.236 60.0005 181.447 60.2598 180.472 60.2598C179.497 60.2598 178.683 60.0033 178.083 59.4904C177.9 59.3325 177.747 59.155 177.621 58.9577C177.494 58.7604 177.392 58.518 177.311 58.2333C177.229 57.9486 177.189 57.5005 177.189 56.8917V52.6104H178.286V56.903C178.286 57.6132 178.367 58.1093 178.531 58.3855C178.694 58.6645 178.942 58.8872 179.277 59.0535C179.613 59.2226 180.007 59.3043 180.461 59.3043C181.109 59.3043 181.636 59.138 182.044 58.7998C182.259 58.6194 182.414 58.4052 182.507 58.16C182.602 57.9148 182.65 57.4949 182.65 56.9001V52.6075L182.647 52.6104Z" fill="white"/>
<path d="M187.635 53.532H187.309V55.9193H187.723C188.275 55.9193 188.656 55.8714 188.861 55.7783C189.067 55.6853 189.228 55.5444 189.34 55.3528C189.456 55.1639 189.512 54.9469 189.512 54.7073C189.512 54.4677 189.447 54.2535 189.321 54.0619C189.194 53.8702 189.013 53.7321 188.782 53.6532C188.551 53.5743 188.168 53.5348 187.633 53.5348M186.215 60.1752V52.6132H188.126C188.898 52.6132 189.509 52.802 189.963 53.1797C190.417 53.5602 190.642 54.0703 190.642 54.7186C190.642 55.1583 190.532 55.5388 190.31 55.8601C190.087 56.1814 189.769 56.421 189.354 56.5788C189.597 56.7395 189.836 56.9537 190.07 57.2299C190.304 57.5033 190.631 57.9824 191.053 58.6645C191.318 59.0957 191.532 59.4171 191.693 59.6341L192.096 60.1752H190.797L190.465 59.6764C190.453 59.6594 190.431 59.6284 190.4 59.5833L190.188 59.2846L189.85 58.7322L189.487 58.1403C189.261 57.8302 189.056 57.5822 188.867 57.399C188.678 57.2158 188.509 57.0833 188.36 57.0016C188.207 56.9199 187.954 56.8804 187.599 56.8804H187.314V60.1724H186.224L186.215 60.1752Z" fill="white"/>
<path d="M196.973 53.5321C196.1 53.5321 195.384 53.8026 194.824 54.3438C194.263 54.8849 193.981 55.5755 193.981 56.4182C193.981 57.261 194.263 57.912 194.826 58.4532C195.39 58.9943 196.094 59.2649 196.942 59.2649C197.791 59.2649 198.504 58.9887 199.07 58.4363C199.639 57.8838 199.924 57.1961 199.924 56.3731C199.924 55.5501 199.639 54.899 199.07 54.3522C198.501 53.8055 197.802 53.5321 196.973 53.5321ZM196.928 52.5033C198.106 52.5033 199.087 52.8725 199.87 53.611C200.653 54.3494 201.045 55.2795 201.045 56.3929C201.045 57.5062 200.651 58.4306 199.859 59.1606C199.07 59.8906 198.072 60.257 196.869 60.257C195.666 60.257 194.764 59.8906 193.998 59.1606C193.234 58.4306 192.851 57.5146 192.851 56.4126C192.851 55.3105 193.237 54.3494 194.006 53.6082C194.776 52.8697 195.751 52.5005 196.928 52.5005" fill="white"/>
<path d="M205.204 57.0044L204.375 56.5056C203.854 56.1899 203.485 55.8798 203.265 55.5754C203.045 55.271 202.936 54.9187 202.936 54.5213C202.936 53.9266 203.144 53.4418 203.561 53.0698C203.978 52.6977 204.519 52.5117 205.184 52.5117C205.849 52.5117 206.404 52.6893 206.937 53.0444V54.2733C206.387 53.749 205.798 53.4869 205.164 53.4869C204.807 53.4869 204.516 53.5687 204.285 53.7321C204.057 53.8956 203.941 54.1042 203.941 54.3607C203.941 54.5861 204.026 54.8004 204.195 54.9977C204.364 55.1949 204.635 55.4035 205.009 55.6205L205.843 56.111C206.773 56.6606 207.238 57.3624 207.238 58.2136C207.238 58.8196 207.033 59.3128 206.624 59.6905C206.215 60.071 205.683 60.2598 205.029 60.2598C204.277 60.2598 203.589 60.0315 202.972 59.5721V58.1967C203.561 58.9379 204.243 59.3072 205.018 59.3072C205.359 59.3072 205.643 59.2141 205.872 59.0253C206.1 58.8365 206.213 58.5997 206.213 58.315C206.213 57.8556 205.877 57.4188 205.209 57.0044" fill="white"/>
<path d="M82.7604 13.3513C79.3227 13.3513 76.4824 14.4505 74.2394 16.6489C71.9965 18.8474 70.875 21.6151 70.875 24.9579C70.875 28.3007 72.0049 30.9219 74.262 33.0837C76.519 35.2455 79.3537 36.3278 82.7604 36.3278C86.167 36.3278 88.9566 35.2229 91.2587 33.0076C93.5609 30.795 94.7105 28.0695 94.7105 24.8282C94.7105 21.587 93.5806 18.7741 91.3236 16.6066C89.0665 14.4364 86.2121 13.3541 82.7604 13.3541M98.5173 41.8803L94.1244 46.1108C92.755 46.0376 91.3236 45.798 89.8301 45.3837C88.3367 44.9722 86.8208 44.4028 85.2851 43.6813C83.7494 42.9569 81.6981 41.7224 79.1339 39.9721C75.4201 39.307 72.3544 37.5567 69.9452 34.7212C67.5332 31.8858 66.3271 28.6191 66.3271 24.9156C66.3271 20.3891 67.8797 16.6433 70.9821 13.6782C74.0845 10.7131 78.0124 9.23059 82.7604 9.23059C87.5083 9.23059 91.4025 10.7047 94.5302 13.6472C97.6551 16.5897 99.2161 20.2904 99.2161 24.7437C99.2161 28.4895 98.0355 31.7815 95.677 34.6141C93.3157 37.4496 90.2641 39.2337 86.5193 39.9721L87.6774 40.4062C91.2757 41.7816 93.8708 42.4665 95.4572 42.4665C96.3307 42.4665 97.3508 42.272 98.5173 41.8803Z" fill="white"/>
<path d="M114.61 39.9694V37.4102C113.765 38.329 112.798 39.0421 111.713 39.5522C110.626 40.0624 109.544 40.316 108.465 40.316C107.197 40.316 106.027 40.0004 104.954 39.3718C103.883 38.7433 103.074 37.8893 102.527 36.8126C101.981 35.736 101.708 33.9462 101.708 31.4434V20.0115H105.686V31.387C105.686 33.4812 105.988 34.944 106.594 35.7754C107.199 36.6069 108.259 37.0212 109.775 37.0212C111.668 37.0212 113.28 36.1024 114.607 34.2675V20.0143H118.586V39.9722H114.607L114.61 39.9694Z" fill="white"/>
<path d="M135.241 9.18555L130.299 15.6935H127.85L130.803 9.18555H135.244H135.241ZM132.333 36.0206V30.0989L129.665 31.1192C128.31 31.6547 127.349 32.1931 126.788 32.737C126.227 33.2782 125.946 33.9546 125.946 34.7664C125.946 35.5781 126.21 36.263 126.743 36.7844C127.276 37.3059 127.963 37.5652 128.808 37.5652C130.076 37.5652 131.251 37.0522 132.328 36.0234M136.242 27.9738V36.4575C136.242 37.1368 136.476 37.4778 136.94 37.4778C137.405 37.4778 138.172 37.1227 139.192 36.4152V38.8222C138.287 39.4028 137.563 39.7946 137.017 40.006C136.47 40.2146 135.898 40.3217 135.301 40.3217C133.596 40.3217 132.59 39.6565 132.283 38.3262C130.592 39.6283 128.792 40.2794 126.881 40.2794C125.481 40.2794 124.314 39.82 123.381 38.9011C122.449 37.9823 121.981 36.8295 121.981 35.44C121.981 34.1829 122.437 33.0584 123.348 32.0662C124.258 31.0769 125.554 30.2906 127.23 29.7128L132.325 27.9766V26.914C132.325 24.5126 131.113 23.3119 128.696 23.3119C126.523 23.3119 124.41 24.4253 122.353 26.6519V22.3339C123.897 20.5272 126.123 19.6225 129.023 19.6225C131.195 19.6225 132.936 20.1862 134.25 21.3136C134.686 21.6744 135.081 22.1563 135.43 22.7567C135.78 23.357 136.002 23.9574 136.098 24.5577C136.194 25.1581 136.239 26.2967 136.239 27.9738" fill="white"/>
<path d="M146.008 9.66187H142.029V39.9693H146.008V9.66187Z" fill="white"/>
<path d="M151.965 20.0115H155.944V39.9694H151.965V20.0115ZM153.932 11.6151C154.588 11.6151 155.149 11.8378 155.617 12.2887C156.082 12.7369 156.316 13.2865 156.316 13.9376C156.316 14.5886 156.082 15.1242 155.617 15.5864C155.149 16.0486 154.588 16.2798 153.932 16.2798C153.32 16.2798 152.779 16.0458 152.315 15.5751C151.847 15.1044 151.616 14.5605 151.616 13.9376C151.616 13.3147 151.85 12.7904 152.315 12.3197C152.782 11.849 153.32 11.6151 153.932 11.6151Z" fill="white"/>
<path d="M158.432 23.1794L165.91 15.8907V20.0114H172.276V23.5684H165.91V33.3373C165.91 35.6175 166.866 36.759 168.776 36.759C170.205 36.759 171.715 36.2883 173.304 35.3498V39.0392C171.774 39.8932 170.103 40.3188 168.297 40.3188C166.491 40.3188 164.958 39.7917 163.749 38.7348C163.369 38.4163 163.056 38.0584 162.808 37.6609C162.56 37.2635 162.352 36.7421 162.185 36.0995C162.016 35.4569 161.935 34.2308 161.935 32.4213V23.5712H158.435V23.1794H158.432Z" fill="white"/>
<path d="M186.725 36.0207V30.099L184.057 31.1193C182.701 31.6548 181.74 32.1931 181.18 32.7371C180.619 33.2783 180.337 33.9547 180.337 34.7664C180.337 35.5782 180.602 36.2631 181.135 36.7845C181.667 37.3059 182.355 37.5652 183.2 37.5652C184.468 37.5652 185.64 37.0522 186.719 36.0235M190.633 27.9738V36.4575C190.633 37.1368 190.867 37.4778 191.332 37.4778C191.797 37.4778 192.563 37.1227 193.583 36.4153V38.8223C192.679 39.4029 191.955 39.7947 191.408 40.0061C190.862 40.2146 190.29 40.3217 189.692 40.3217C187.987 40.3217 186.981 39.6566 186.674 38.3262C184.984 39.6284 183.183 40.2795 181.273 40.2795C179.872 40.2795 178.706 39.82 177.773 38.9012C176.84 37.9824 176.373 36.8296 176.373 35.4401C176.373 34.183 176.829 33.0584 177.739 32.0663C178.649 31.077 179.945 30.2906 181.622 29.7128L186.717 27.9766V26.9141C186.717 24.5127 185.508 23.312 183.087 23.312C180.915 23.312 178.801 24.4253 176.745 26.6519V22.334C178.289 20.5273 180.515 19.6226 183.414 19.6226C185.587 19.6226 187.328 20.1863 188.641 21.3137C189.078 21.6744 189.472 22.1564 189.822 22.7567C190.171 23.3571 190.394 23.9574 190.49 24.5578C190.585 25.1581 190.63 26.2968 190.63 27.9738" fill="white"/>
<path d="M195.776 38.5375V34.2844C196.897 35.0651 198.047 35.6993 199.219 36.1812C200.391 36.666 201.38 36.9084 202.183 36.9084C202.986 36.9084 203.727 36.7055 204.325 36.2996C204.922 35.8966 205.221 35.4118 205.221 34.8481C205.221 34.2844 205.026 33.7883 204.64 33.405C204.254 33.0217 203.42 32.4693 202.135 31.7449C199.568 30.3272 197.889 29.1152 197.094 28.109C196.3 27.1056 195.902 26.0092 195.902 24.8226C195.902 23.2894 196.503 22.0379 197.706 21.0684C198.909 20.0988 200.456 19.614 202.352 19.614C204.249 19.614 206.339 20.1636 208.411 21.2628V25.1665C206.049 23.7488 204.116 23.0413 202.614 23.0413C201.842 23.0413 201.217 23.2048 200.743 23.5317C200.27 23.8559 200.033 24.2871 200.033 24.8226C200.033 25.2877 200.247 25.7274 200.676 26.1473C201.104 26.5673 201.859 27.0746 202.938 27.6665L204.361 28.4698C207.715 30.3497 209.394 32.4326 209.394 34.7156C209.394 36.3503 208.749 37.692 207.458 38.7376C206.168 39.7861 204.508 40.3104 202.482 40.3104C201.287 40.3104 200.222 40.1835 199.289 39.9299C198.357 39.6762 197.182 39.2111 195.77 38.5319" fill="white"/>
</g>
<defs>
<clipPath id="clip0_300_226">
<rect width="211" height="64" fill="white"/>
</clipPath>
</defs>
</svg>
